<svg width="879" height="454" xmlns="http://www.w3.org/2000/svg" xmlns:xlink="http://www.w3.org/1999/xlink" overflow="hidden"><defs><clipPath id="clip0"><rect x="0" y="0" width="879" height="454"/></clipPath><linearGradient x1="508.089" y1="103.989" x2="436.911" y2="19.1001" gradientUnits="userSpaceOnUse" spreadMethod="reflect" id="fill1"><stop offset="0" stop-color="#F6F8FC"/><stop offset="0.0217391" stop-color="#F5F7FB"/><stop offset="0.0434783" stop-color="#F5F7FB"/><stop offset="0.0652174" stop-color="#F5F7FB"/><stop offset="0.0869565" stop-color="#F5F7FB"/><stop offset="0.108696" stop-color="#F5F7FB"/><stop offset="0.130435" stop-color="#F4F7FB"/><stop offset="0.152174" stop-color="#F4F6FB"/><stop offset="0.173913" stop-color="#F4F6FB"/><stop offset="0.195652" stop-color="#F3F6FB"/><stop offset="0.217391" stop-color="#F3F5FB"/><stop offset="0.23913" stop-color="#F2F5FA"/><stop offset="0.26087" stop-color="#F2F5FA"/><stop offset="0.282609" stop-color="#F1F4FA"/><stop offset="0.304348" stop-color="#F0F4FA"/><stop offset="0.326087" stop-color="#F0F3FA"/><stop offset="0.347826" stop-color="#EFF3F9"/><stop offset="0.369565" stop-color="#EEF2F9"/><stop offset="0.391304" stop-color="#EDF1F9"/><stop offset="0.413043" stop-color="#EDF1F9"/><stop offset="0.434783" stop-color="#ECF0F8"/><stop offset="0.456522" stop-color="#EBEFF8"/><stop offset="0.478261" stop-color="#EAEFF8"/><stop offset="0.5" stop-color="#E9EEF7"/><stop offset="0.521739" stop-color="#E8EDF7"/><stop offset="0.543478" stop-color="#E7ECF7"/><stop offset="0.565217" stop-color="#E5EBF6"/><stop offset="0.586957" stop-color="#E4EBF6"/><stop offset="0.608696" stop-color="#E3EAF6"/><stop offset="0.630435" stop-color="#E2E9F5"/><stop offset="0.652174" stop-color="#E0E8F5"/><stop offset="0.673913" stop-color="#DFE7F4"/><stop offset="0.695652" stop-color="#DEE6F4"/><stop offset="0.717391" stop-color="#DCE5F3"/><stop offset="0.73913" stop-color="#DBE4F3"/><stop offset="0.76087" stop-color="#D9E3F3"/><stop offset="0.782609" stop-color="#D8E1F2"/><stop offset="0.804348" stop-color="#D6E0F2"/><stop offset="0.826087" stop-color="#D5DFF1"/><stop offset="0.847826" stop-color="#D3DEF0"/><stop offset="0.869565" stop-color="#D1DDF0"/><stop offset="0.891304" stop-color="#D0DBEF"/><stop offset="0.913043" stop-color="#CEDAEF"/><stop offset="0.934783" stop-color="#CCD9EE"/><stop offset="0.956522" stop-color="#CAD7EE"/><stop offset="0.978261" stop-color="#C8D6ED"/><stop offset="1" stop-color="#C7D5ED"/></linearGradient><linearGradient x1="761.089" y1="345.163" x2="689.911" y2="260.274" gradientUnits="userSpaceOnUse" spreadMethod="reflect" id="fill2"><stop offset="0" stop-color="#F6F8FC"/><stop offset="0.0217391" stop-color="#F5F7FB"/><stop offset="0.0434783" stop-color="#F5F7FB"/><stop offset="0.0652174" stop-color="#F5F7FB"/><stop offset="0.0869565" stop-color="#F5F7FB"/><stop offset="0.108696" stop-color="#F5F7FB"/><stop offset="0.130435" stop-color="#F4F7FB"/><stop offset="0.152174" stop-color="#F4F6FB"/><stop offset="0.173913" stop-color="#F4F6FB"/><stop offset="0.195652" stop-color="#F3F6FB"/><stop offset="0.217391" stop-color="#F3F5FB"/><stop offset="0.23913" stop-color="#F2F5FA"/><stop offset="0.26087" stop-color="#F2F5FA"/><stop offset="0.282609" stop-color="#F1F4FA"/><stop offset="0.304348" stop-color="#F0F4FA"/><stop offset="0.326087" stop-color="#F0F3FA"/><stop offset="0.347826" stop-color="#EFF3F9"/><stop offset="0.369565" stop-color="#EEF2F9"/><stop offset="0.391304" stop-color="#EDF1F9"/><stop offset="0.413043" stop-color="#EDF1F9"/><stop offset="0.434783" stop-color="#ECF0F8"/><stop offset="0.456522" stop-color="#EBEFF8"/><stop offset="0.478261" stop-color="#EAEFF8"/><stop offset="0.5" stop-color="#E9EEF7"/><stop offset="0.521739" stop-color="#E8EDF7"/><stop offset="0.543478" stop-color="#E7ECF7"/><stop offset="0.565217" stop-color="#E5EBF6"/><stop offset="0.586957" stop-color="#E4EBF6"/><stop offset="0.608696" stop-color="#E3EAF6"/><stop offset="0.630435" stop-color="#E2E9F5"/><stop offset="0.652174" stop-color="#E0E8F5"/><stop offset="0.673913" stop-color="#DFE7F4"/><stop offset="0.695652" stop-color="#DEE6F4"/><stop offset="0.717391" stop-color="#DCE5F3"/><stop offset="0.73913" stop-color="#DBE4F3"/><stop offset="0.76087" stop-color="#D9E3F3"/><stop offset="0.782609" stop-color="#D8E1F2"/><stop offset="0.804348" stop-color="#D6E0F2"/><stop offset="0.826087" stop-color="#D5DFF1"/><stop offset="0.847826" stop-color="#D3DEF0"/><stop offset="0.869565" stop-color="#D1DDF0"/><stop offset="0.891304" stop-color="#D0DBEF"/><stop offset="0.913043" stop-color="#CEDAEF"/><stop offset="0.934783" stop-color="#CCD9EE"/><stop offset="0.956522" stop-color="#CAD7EE"/><stop offset="0.978261" stop-color="#C8D6ED"/><stop offset="1" stop-color="#C7D5ED"/></linearGradient></defs><g clip-path="url(#clip0)"><rect x="0" y="0" width="879" height="454.328" fill="#FFFFFF"/><path d="M726 274.198 726 226.163" stroke="#172C51" stroke-width="4.00441" stroke-miterlimit="8" fill="none" fill-rule="evenodd"/><path d="M619 216.156 848 216.156" stroke="#172C51" stroke-width="4.00152" stroke-miterlimit="8" fill="none" fill-rule="evenodd"/><path d="M291 265.192 430 265.192" stroke="#172C51" stroke-width="4.00152" stroke-miterlimit="8" fill="none" fill-rule="evenodd"/><path d="M37 167.121 419 167.121" stroke="#172C51" stroke-width="4.00152" stroke-miterlimit="8" fill="none" fill-rule="evenodd"/><path d="M224 30.3557C224 19.1175 233.104 10.0072 244.334 10.0072L567.666 10.0072C578.896 10.0072 588 19.1175 588 30.3557L588 111.747C588 122.985 578.896 132.095 567.666 132.095L244.334 132.095C233.104 132.095 224 122.985 224 111.747Z" fill="#D9D9D9" fill-rule="evenodd"/><path d="M5.50004 143.604 55.5 143.604 55.5 184.359 41.226 198.644 5.50004 198.644Z" fill="#FFFFFF" fill-rule="evenodd"/><path d="M41.226 198.644 44.0808 187.216 55.5 184.359Z" fill="#CDCDCD" fill-rule="evenodd"/><path d="M41.226 198.644 44.0808 187.216 55.5 184.359 41.226 198.644 5.50004 198.644 5.50004 143.604 55.5 143.604 55.5 184.359" stroke="#172C51" stroke-width="1.33384" stroke-miterlimit="8" fill="none" fill-rule="evenodd"/><text font-family="Yu Gothic,Yu Gothic_MSFontService,sans-serif" font-weight="700" font-size="14.6828" transform="matrix(1 0 0 1.00072 15.3818 169)">画像</text><path d="M173.5 142.603 223.5 142.603 223.5 183.358 209.226 197.643 173.5 197.643Z" fill="#FFFFFF" fill-rule="evenodd"/><path d="M209.226 197.643 212.081 186.215 223.5 183.358Z" fill="#CDCDCD" fill-rule="evenodd"/><path d="M209.226 197.643 212.081 186.215 223.5 183.358 209.226 197.643 173.5 197.643 173.5 142.603 223.5 142.603 223.5 183.358" stroke="#172C51" stroke-width="1.33384" stroke-miterlimit="8" fill="none" fill-rule="evenodd"/><text font-family="Calibri,Calibri_MSFontService,sans-serif" font-weight="700" font-size="14.6828" transform="matrix(1 0 0 1.00072 186.975 159)">PLY</text><text font-family="Calibri,Calibri_MSFontService,sans-serif" font-weight="700" font-size="14.6828" transform="matrix(1 0 0 1.00072 176.804 176)">(3DGS)</text><path d="M398.5 142.603 449.5 142.603 449.5 183.073 434.941 197.643 398.5 197.643Z" fill="#FFFFFF" fill-rule="evenodd"/><path d="M434.941 197.643 437.852 185.987 449.5 183.073Z" fill="#CDCDCD" fill-rule="evenodd"/><path d="M434.941 197.643 437.852 185.987 449.5 183.073 434.941 197.643 398.5 197.643 398.5 142.603 449.5 142.603 449.5 183.073" stroke="#172C51" stroke-width="1.33384" stroke-miterlimit="8" fill="none" fill-rule="evenodd"/><text font-family="Calibri,Calibri_MSFontService,sans-serif" font-weight="700" font-size="14.6828" transform="matrix(1 0 0 1.00072 412.605 159)">PLY</text><text font-family="Calibri,Calibri_MSFontService,sans-serif" font-weight="700" font-size="14.6828" transform="matrix(1 0 0 1.00072 406.023 176)">(RGB)</text><path d="M398.5 238.672 449.5 238.672 449.5 279.142 434.941 293.712 398.5 293.712Z" fill="#FFFFFF" fill-rule="evenodd"/><path d="M434.941 293.712 437.852 282.056 449.5 279.142Z" fill="#CDCDCD" fill-rule="evenodd"/><path d="M434.941 293.712 437.852 282.056 449.5 279.142 434.941 293.712 398.5 293.712 398.5 238.672 449.5 238.672 449.5 279.142" stroke="#172C51" stroke-width="1.33384" stroke-miterlimit="8" fill="none" fill-rule="evenodd"/><text font-family="Calibri,Calibri_MSFontService,sans-serif" font-weight="700" font-size="14.6828" transform="matrix(1 0 0 1.00072 412.605 255)">PLY</text><text font-family="Calibri,Calibri_MSFontService,sans-serif" font-weight="700" font-size="14.6828" transform="matrix(1 0 0 1.00072 406.023 272)">(RGB)</text><path d="M588.5 189.637 638.5 189.637 638.5 229.392 624.226 243.676 588.5 243.676Z" fill="#FFFFFF" fill-rule="evenodd"/><path d="M624.226 243.676 627.081 232.249 638.5 229.392Z" fill="#CDCDCD" fill-rule="evenodd"/><path d="M624.226 243.676 627.081 232.249 638.5 229.392 624.226 243.676 588.5 243.676 588.5 189.637 638.5 189.637 638.5 229.392" stroke="#172C51" stroke-width="1.33384" stroke-miterlimit="8" fill="none" fill-rule="evenodd"/><text font-family="Calibri,Calibri_MSFontService,sans-serif" font-weight="700" font-size="14.6828" transform="matrix(1 0 0 1.00072 602.264 205)">PLY</text><text font-family="Calibri,Calibri_MSFontService,sans-serif" font-weight="700" font-size="14.6828" transform="matrix(1 0 0 1.00072 595.681 222)">(RGB)</text><path d="M818.5 189.637 868.5 189.637 868.5 230.392 854.226 244.677 818.5 244.677Z" fill="#FFFFFF" fill-rule="evenodd"/><path d="M854.226 244.677 857.081 233.249 868.5 230.392Z" fill="#CDCDCD" fill-rule="evenodd"/><path d="M854.226 244.677 857.081 233.249 868.5 230.392 854.226 244.677 818.5 244.677 818.5 189.637 868.5 189.637 868.5 230.392" stroke="#172C51" stroke-width="1.33384" stroke-miterlimit="8" fill="none" fill-rule="evenodd"/><text font-family="Calibri,Calibri_MSFontService,sans-serif" font-weight="700" font-size="14.6828" transform="matrix(1 0 0 1.00072 832.04 206)">PLY</text><text font-family="Calibri,Calibri_MSFontService,sans-serif" font-weight="700" font-size="14.6828" transform="matrix(1 0 0 1.00072 825.457 223)">(RGB)</text><rect x="250.5" y="30.522" width="124" height="64.0463" stroke="#172C51" stroke-width="1.33384" stroke-miterlimit="8" stroke-dasharray="5.33536 4.00152" fill="#DAE3F3"/><text font-family="Calibri,Calibri_MSFontService,sans-serif" font-weight="700" font-size="14.6828" transform="matrix(1 0 0 1.00072 295.377 58)">3DGS</text><text font-family="Calibri,Calibri_MSFontService,sans-serif" font-weight="700" font-size="14.6828" transform="matrix(1 0 0 1.00072 290.295 75)">Viewer</text><path d="M73.5 152.777C73.5 147.711 77.6041 143.604 82.6668 143.604L147.333 143.604C152.396 143.604 156.5 147.711 156.5 152.777L156.5 189.47C156.5 194.536 152.396 198.644 147.333 198.644L82.6668 198.644C77.6041 198.644 73.5 194.536 73.5 189.47Z" stroke="#172C51" stroke-width="1.33384" stroke-miterlimit="8" fill="#DAE3F3" fill-rule="evenodd"/><text font-family="Calibri,Calibri_MSFontService,sans-serif" font-weight="700" font-size="14.6828" transform="matrix(1 0 0 1.00072 87.6215 176)">ml</text><text font-family="Calibri,Calibri_MSFontService,sans-serif" font-weight="700" font-size="14.6828" transform="matrix(1 0 0 1.00072 103.294 176)">-</text><text font-family="Calibri,Calibri_MSFontService,sans-serif" font-weight="700" font-size="14.6828" transform="matrix(1 0 0 1.00072 107.796 176)">sharp</text><rect x="466.5" y="61.5444" width="13.0001" height="64.0463" stroke="#172C51" stroke-width="1.33384" stroke-miterlimit="8" fill="#FFFFFF"/><rect x="444.5" y="117.585" width="57.9999" height="8.00578" stroke="#172C51" stroke-width="1.33384" stroke-miterlimit="8" fill="#FFFFFF"/><rect x="417.5" y="25.5184" width="110" height="73.0528" stroke="#172C51" stroke-width="1.33384" stroke-miterlimit="8" fill="#FFFFFF"/><rect x="424.5" y="29.5213" width="96" height="64.0463" stroke="#172C51" stroke-width="1.33384" stroke-miterlimit="8" fill="url(#fill1)"/><rect x="720.5" y="301.718" width="12.0001" height="64.0463" stroke="#172C51" stroke-width="1.33384" stroke-miterlimit="8" fill="#FFFFFF"/><rect x="697.5" y="357.758" width="58.0001" height="8.00577" stroke="#172C51" stroke-width="1.33384" stroke-miterlimit="8" fill="#FFFFFF"/><rect x="670.5" y="265.692" width="110" height="73.0528" stroke="#172C51" stroke-width="1.33384" stroke-miterlimit="8" fill="#FFFFFF"/><rect x="677.5" y="270.695" width="96.0001" height="64.0463" stroke="#172C51" stroke-width="1.33384" stroke-miterlimit="8" fill="url(#fill2)"/><path d="M249.5 151.777C249.5 146.71 253.604 142.603 258.667 142.603L364.333 142.603C369.396 142.603 373.5 146.71 373.5 151.777L373.5 188.469C373.5 193.536 369.396 197.643 364.333 197.643L258.667 197.643C253.604 197.643 249.5 193.536 249.5 188.469Z" stroke="#172C51" stroke-width="1.33384" stroke-miterlimit="8" fill="#DAE3F3" fill-rule="evenodd"/><text font-family="Calibri,Calibri_MSFontService,sans-serif" font-weight="700" font-size="14.6828" transform="matrix(1 0 0 1.00072 275.93 175)">3DGS</text><text font-family="Calibri,Calibri_MSFontService,sans-serif" font-weight="700" font-size="14.6828" transform="matrix(1 0 0 1.00072 308.943 175)">-</text><text font-family="Calibri,Calibri_MSFontService,sans-serif" font-weight="700" font-size="14.6828" transform="matrix(1 0 0 1.00072 313.444 175)">to</text><text font-family="Calibri,Calibri_MSFontService,sans-serif" font-weight="700" font-size="14.6828" transform="matrix(1 0 0 1.00072 326.449 175)">-</text><text font-family="Calibri,Calibri_MSFontService,sans-serif" font-weight="700" font-size="14.6828" transform="matrix(1 0 0 1.00072 330.951 175)">PC</text><path d="M249.5 248.847C249.5 243.78 253.604 239.673 258.667 239.673L364.333 239.673C369.396 239.673 373.5 243.78 373.5 248.847L373.5 285.539C373.5 290.606 369.396 294.713 364.333 294.713L258.667 294.713C253.604 294.713 249.5 290.606 249.5 285.539Z" stroke="#172C51" stroke-width="1.33384" stroke-miterlimit="8" fill="#FFFFFF" fill-rule="evenodd"/><text font-family="Calibri,Calibri_MSFontService,sans-serif" font-weight="700" font-size="14.6828" transform="matrix(1 0 0 1.00072 259.591 263)">3DGSply2RGBply</text><text font-family="Calibri,Calibri_MSFontService,sans-serif" font-weight="700" font-size="14.6828" transform="matrix(1 0 0 1.00072 301.853 280)">.py</text><path d="M467.5 197.81C467.5 192.743 471.604 188.636 476.667 188.636L550.333 188.636C555.396 188.636 559.5 192.743 559.5 197.81L559.5 234.503C559.5 239.569 555.396 243.676 550.333 243.676L476.667 243.676C471.604 243.676 467.5 239.569 467.5 234.503Z" stroke="#172C51" stroke-width="1.33384" stroke-miterlimit="8" fill="#FFFFFF" fill-rule="evenodd"/><text font-family="Calibri,Calibri_MSFontService,sans-serif" font-weight="700" font-size="14.6828" transform="matrix(1 0 0 1.00072 474.025 221)">Ztr</text><text font-family="Calibri,Calibri_MSFontService,sans-serif" font-weight="700" font-size="14.6828" transform="matrix(1 0 0 1.00072 491.365 221)">u</text><text font-family="Calibri,Calibri_MSFontService,sans-serif" font-weight="700" font-size="14.6828" transform="matrix(1 0 0 1.00072 499.201 221)">ncate</text><text font-family="Calibri,Calibri_MSFontService,sans-serif" font-weight="700" font-size="14.6828" transform="matrix(1 0 0 1.00072 532.881 221)">.py</text><path d="M662.5 198.81C662.5 193.744 666.604 189.637 671.667 189.637L780.333 189.637C785.396 189.637 789.5 193.744 789.5 198.81L789.5 235.503C789.5 240.57 785.396 244.677 780.333 244.677L671.667 244.677C666.604 244.677 662.5 240.57 662.5 235.503Z" stroke="#172C51" stroke-width="1.33384" stroke-miterlimit="8" fill="#FFFFFF" fill-rule="evenodd"/><text font-family="Calibri,Calibri_MSFontService,sans-serif" font-weight="700" font-size="14.6828" transform="matrix(1 0 0 1.00072 675.455 213)">o3d_display_ply</text><text font-family="Calibri,Calibri_MSFontService,sans-serif" font-weight="700" font-size="14.6828" transform="matrix(1 0 0 1.00072 715.717 230)">.py</text><path d="M198 142.622C198 102.333 223.978 62.0448 249.956 62.0448" stroke="#000000" stroke-width="4.00441" stroke-miterlimit="8" stroke-dasharray="16.0176 12.0132" fill="none" fill-rule="evenodd"/><path d="M0 0C10.7598 0 21.5194 0.0910581 21.5194 0.182221 21.5194 0.273279 32.2792 0.364338 43.0389 0.364338" stroke="#000000" stroke-width="4.00152" stroke-miterlimit="8" stroke-dasharray="16.0061 12.0046" fill="none" fill-rule="evenodd" transform="matrix(1 0 0 -1.00072 374 61.4087)"/><path d="M0 0C34.7324 0 69.4649 25.6728 69.4649 51.3456" stroke="#000000" stroke-width="4.00152" stroke-miterlimit="8" fill="none" fill-rule="evenodd" transform="matrix(1.83697e-16 1.00072 1 -1.8383e-16 198 197.142)"/><path d="M0 0C32.1373 0 64.2746 11.1125 64.2746 22.225" stroke="#000000" stroke-width="4.00152" stroke-miterlimit="8" fill="none" fill-rule="evenodd" transform="matrix(1 0 0 -1.00072 449 265.417)"/><path d="M449 170.123C481.137 170.123 513.275 179.397 513.275 188.672" stroke="#000000" stroke-width="4.00152" stroke-miterlimit="8" fill="none" fill-rule="evenodd"/><text font-family="Yu Gothic,Yu Gothic_MSFontService,sans-serif" font-weight="700" font-size="14.6828" transform="matrix(1 0 0 1.00072 524.352 123)">未確認</text><path d="M482.5 383.777 457.5 377.773 482.5 371.769Z" stroke="#BFBFBF" stroke-width="1.3348" stroke-miterlimit="8" fill="none" fill-rule="evenodd"/><path d="M600.5 329.738 600.5 425.808" stroke="#BFBFBF" stroke-width="1.33384" stroke-miterlimit="8" stroke-dasharray="5.33536 4.00152" fill="none" fill-rule="evenodd"/><path d="M538.5 331.74 538.5 426.808" stroke="#BFBFBF" stroke-width="1.33384" stroke-miterlimit="8" stroke-dasharray="5.33536 4.00152" fill="none" fill-rule="evenodd"/><path d="M551.683 353.255 538 357.138 538 395.195 552 399.288" stroke="#172C51" stroke-width="2.00076" stroke-miterlimit="8" fill="none" fill-rule="evenodd"/><path d="M538.5 333.991 545.5 333.991 545.5 329.738 552.5 338.244 545.5 346.75 545.5 342.497 538.5 342.497Z" stroke="#172C51" stroke-width="1.33384" stroke-miterlimit="8" fill="none" fill-rule="evenodd"/><path d="M553.5 329.738 553.5 425.808" stroke="#BFBFBF" stroke-width="1.33384" stroke-miterlimit="8" stroke-dasharray="5.33536 4.00152" fill="none" fill-rule="evenodd"/><text font-family="Yu Gothic,Yu Gothic_MSFontService,sans-serif" font-weight="700" font-size="14.6828" transform="matrix(1 0 0 1.00072 560.115 312)">削除</text><path d="M552 324.234C552 321.471 553.436 319.231 555.207 319.231L572.792 319.231C574.564 319.231 576 316.991 576 314.227 576 316.991 577.436 319.231 579.207 319.231L596.792 319.231C598.564 319.231 600 321.471 600 324.234" stroke="#000000" stroke-width="2.00221" stroke-miterlimit="8" fill="none" fill-rule="evenodd"/><path d="M449.5 313.56C449.5 299.835 460.618 288.709 474.334 288.709L550.417 288.709 539.95 238.617 593.667 288.709 597.666 288.709C611.382 288.709 622.5 299.835 622.5 313.56L622.5 313.56 622.5 313.56 622.5 350.837 622.5 412.965C622.5 426.69 611.382 437.816 597.666 437.816L593.667 437.816 550.417 437.816 550.417 437.816 474.334 437.816C460.618 437.816 449.5 426.69 449.5 412.965L449.5 350.837 449.5 313.56 449.5 313.56Z" stroke="#172C51" stroke-width="1.33384" stroke-miterlimit="8" fill="none" fill-rule="evenodd"/><text font-family="Yu Gothic,Yu Gothic_MSFontService,sans-serif" font-weight="700" font-size="14.6828" transform="matrix(1 0 0 1.00072 453.267 402)">カメラ</text><text font-family="Yu Gothic,Yu Gothic_MSFontService,sans-serif" font-weight="700" font-size="14.6828" transform="matrix(1 0 0 1.00072 558.867 428)">点群</text><text font-family="Calibri,Calibri_MSFontService,sans-serif" font-weight="700" font-size="14.6828" transform="matrix(1 0 0 1.00072 658.377 87)">RGB</text><text font-family="Calibri,Calibri_MSFontService,sans-serif" font-weight="700" font-size="14.6828" transform="matrix(1 0 0 1.00072 687.555 87)">PLY</text><text font-family="Yu Gothic,Yu Gothic_MSFontService,sans-serif" font-weight="700" font-size="14.6828" transform="matrix(1 0 0 1.00072 709.23 87)">を表示する</text><text font-family="Yu Gothic,Yu Gothic_MSFontService,sans-serif" font-weight="700" font-size="14.6828" transform="matrix(1 0 0 1.00072 658.377 104)">ついでに</text><text font-family="Calibri,Calibri_MSFontService,sans-serif" font-weight="700" font-size="14.6828" transform="matrix(1 0 0 1.00072 720.401 104)">z</text><text font-family="Yu Gothic,Yu Gothic_MSFontService,sans-serif" font-weight="700" font-size="14.6828" transform="matrix(1 0 0 1.00072 726.236 104)">値の</text><text font-family="Yu Gothic,Yu Gothic_MSFontService,sans-serif" font-weight="700" font-size="14.6828" transform="matrix(1 0 0 1.00072 658.377 122)">スケーリングも実施</text><text font-family="Calibri,Calibri_MSFontService,sans-serif" font-weight="700" font-size="14.6828" transform="matrix(1 0 0 1.00072 658.377 139)">(</text><text font-family="Yu Gothic,Yu Gothic_MSFontService,sans-serif" font-weight="700" font-size="14.6828" transform="matrix(1 0 0 1.00072 662.879 139)">本当は機能ごとに</text><text font-family="Yu Gothic,Yu Gothic_MSFontService,sans-serif" font-weight="700" font-size="14.6828" transform="matrix(1 0 0 1.00072 661.712 157)">わけた方が良い</text><text font-family="Yu Gothic,Yu Gothic_MSFontService,sans-serif" font-weight="700" font-size="14.6828" transform="matrix(1 0 0 1.00072 661.712 175)">のだろうけど</text><text font-family="Yu Gothic,Yu Gothic_MSFontService,sans-serif" font-weight="700" font-size="14.6828" transform="matrix(1 0 0 1.00072 749.745 175)">･･･</text><text font-family="Calibri,Calibri_MSFontService,sans-serif" font-weight="700" font-size="14.6828" transform="matrix(1 0 0 1.00072 771.754 175)">)</text><text font-family="Calibri,Calibri_MSFontService,sans-serif" font-weight="700" font-size="14.6828" transform="matrix(1 0 0 1.00072 789.338 261)">displayed.ply</text><path d="M552 353.255 600 341.246" stroke="#172C51" stroke-width="2.00076" stroke-linecap="square" stroke-miterlimit="8" stroke-dasharray="6.00228 2.00076" fill="none" fill-rule="evenodd"/><path d="M0 12 47.0001 0" stroke="#172C51" stroke-width="2.00076" stroke-linecap="square" stroke-miterlimit="8" stroke-dasharray="6.00228 2.00076" fill="none" fill-rule="evenodd" transform="matrix(1 0 0 -1.00072 555 412.298)"/></g></svg>