<svg width="633" height="217" xmlns="http://www.w3.org/2000/svg" xmlns:xlink="http://www.w3.org/1999/xlink" overflow="hidden"><defs><linearGradient x1="607.796" y1="188.87" x2="536.204" y2="103.681" gradientUnits="userSpaceOnUse" spreadMethod="reflect" id="fill0"><stop offset="0" stop-color="#F6F8FC"/><stop offset="0.0217391" stop-color="#F5F7FB"/><stop offset="0.0434783" stop-color="#F5F7FB"/><stop offset="0.0652174" stop-color="#F5F7FB"/><stop offset="0.0869565" stop-color="#F5F7FB"/><stop offset="0.108696" stop-color="#F5F7FB"/><stop offset="0.130435" stop-color="#F4F7FB"/><stop offset="0.152174" stop-color="#F4F6FB"/><stop offset="0.173913" stop-color="#F4F6FB"/><stop offset="0.195652" stop-color="#F3F6FB"/><stop offset="0.217391" stop-color="#F3F5FB"/><stop offset="0.23913" stop-color="#F2F5FA"/><stop offset="0.26087" stop-color="#F2F5FA"/><stop offset="0.282609" stop-color="#F1F4FA"/><stop offset="0.304348" stop-color="#F0F4FA"/><stop offset="0.326087" stop-color="#F0F3FA"/><stop offset="0.347826" stop-color="#EFF3F9"/><stop offset="0.369565" stop-color="#EEF2F9"/><stop offset="0.391304" stop-color="#EDF1F9"/><stop offset="0.413043" stop-color="#EDF1F9"/><stop offset="0.434783" stop-color="#ECF0F8"/><stop offset="0.456522" stop-color="#EBEFF8"/><stop offset="0.478261" stop-color="#EAEFF8"/><stop offset="0.5" stop-color="#E9EEF7"/><stop offset="0.521739" stop-color="#E8EDF7"/><stop offset="0.543478" stop-color="#E7ECF7"/><stop offset="0.565217" stop-color="#E5EBF6"/><stop offset="0.586957" stop-color="#E4EBF6"/><stop offset="0.608696" stop-color="#E3EAF6"/><stop offset="0.630435" stop-color="#E2E9F5"/><stop offset="0.652174" stop-color="#E0E8F5"/><stop offset="0.673913" stop-color="#DFE7F4"/><stop offset="0.695652" stop-color="#DEE6F4"/><stop offset="0.717391" stop-color="#DCE5F3"/><stop offset="0.73913" stop-color="#DBE4F3"/><stop offset="0.76087" stop-color="#D9E3F3"/><stop offset="0.782609" stop-color="#D8E1F2"/><stop offset="0.804348" stop-color="#D6E0F2"/><stop offset="0.826087" stop-color="#D5DFF1"/><stop offset="0.847826" stop-color="#D3DEF0"/><stop offset="0.869565" stop-color="#D1DDF0"/><stop offset="0.891304" stop-color="#D0DBEF"/><stop offset="0.913043" stop-color="#CEDAEF"/><stop offset="0.934783" stop-color="#CCD9EE"/><stop offset="0.956522" stop-color="#CAD7EE"/><stop offset="0.978261" stop-color="#C8D6ED"/><stop offset="1" stop-color="#C7D5ED"/></linearGradient></defs><g><rect x="0" y="0" width="633" height="216.667" fill="#FFFFFF"/><path d="M572 118.817 572 82.8727" stroke="#172C51" stroke-width="3.99387" stroke-miterlimit="8" fill="none" fill-rule="evenodd"/><path d="M27 30.9525 27 74.885 538 74.885" stroke="#172C51" stroke-width="4" stroke-miterlimit="8" fill="none" fill-rule="evenodd"/><path d="M34 29.954 545 29.954" stroke="#172C51" stroke-width="4" stroke-miterlimit="8" fill="none" fill-rule="evenodd"/><path d="M6.50005 8.48702 50.5001 8.48702 50.5001 43.8716 37.9389 56.4134 6.50005 56.4134Z" fill="#FFFFFF" fill-rule="evenodd"/><path d="M37.9389 56.4134 40.4512 46.3799 50.5001 43.8716Z" fill="#CDCDCD" fill-rule="evenodd"/><path d="M37.9389 56.4134 40.4512 46.3799 50.5001 43.8716 37.9389 56.4134 6.50005 56.4134 6.50005 8.48702 50.5001 8.48702 50.5001 43.8716" stroke="#172C51" stroke-width="1.33333" stroke-miterlimit="8" fill="none" fill-rule="evenodd"/><text font-family="Yu Gothic,Yu Gothic_MSFontService,sans-serif" font-weight="700" font-size="14.6442" transform="matrix(1 0 0 0.998466 13.1876 31)">画像</text><path d="M152.5 8.48702 195.5 8.48702 195.5 44.1566 183.224 56.4134 152.5 56.4134Z" fill="#FFFFFF" fill-rule="evenodd"/><path d="M183.224 56.4134 185.68 46.6079 195.5 44.1566Z" fill="#CDCDCD" fill-rule="evenodd"/><path d="M183.224 56.4134 185.68 46.6079 195.5 44.1566 183.224 56.4134 152.5 56.4134 152.5 8.48702 195.5 8.48702 195.5 44.1566" stroke="#172C51" stroke-width="1.33333" stroke-miterlimit="8" fill="none" fill-rule="evenodd"/><text font-family="Calibri,Calibri_MSFontService,sans-serif" font-weight="700" font-size="14.6442" transform="matrix(1 0 0 0.998466 162.525 22)">PLY</text><text font-family="Calibri,Calibri_MSFontService,sans-serif" font-weight="700" font-size="14.6442" transform="matrix(1 0 0 0.998466 152.358 39)">(3DGS)</text><path d="M63.5001 16.4749C63.5001 12.0633 67.0818 8.48702 71.5002 8.48702L125.5 8.48702C129.918 8.48702 133.5 12.0633 133.5 16.4749L133.5 48.4255C133.5 52.8371 129.918 56.4134 125.5 56.4134L71.5002 56.4134C67.0818 56.4134 63.5001 52.8371 63.5001 48.4255Z" stroke="#172C51" stroke-width="1.33333" stroke-miterlimit="8" fill="#DAE3F3" fill-rule="evenodd"/><text font-family="Calibri,Calibri_MSFontService,sans-serif" font-weight="700" font-size="14.6442" transform="matrix(1 0 0 0.998466 71.0085 37)">ml</text><text font-family="Calibri,Calibri_MSFontService,sans-serif" font-weight="700" font-size="14.6442" transform="matrix(1 0 0 0.998466 86.6751 37)">-</text><text font-family="Calibri,Calibri_MSFontService,sans-serif" font-weight="700" font-size="14.6442" transform="matrix(1 0 0 0.998466 91.1751 37)">sharp</text><path d="M213.5 16.9741C213.5 12.8383 216.858 9.48548 221 9.48548L284 9.48548C288.142 9.48548 291.5 12.8383 291.5 16.9741L291.5 46.9278C291.5 51.0637 288.142 54.4165 284 54.4165L221 54.4165C216.858 54.4165 213.5 51.0637 213.5 46.9278Z" stroke="#172C51" stroke-width="1.33333" stroke-miterlimit="8" fill="#FFFFFF" fill-rule="evenodd"/><text font-family="Calibri,Calibri_MSFontService,sans-serif" font-weight="700" font-size="14.6442" transform="matrix(1 0 0 0.998466 222.57 28)">3DGS2</text><text font-family="Calibri,Calibri_MSFontService,sans-serif" font-weight="700" font-size="14.6442" transform="matrix(1 0 0 0.998466 263.07 28)">UV</text><text font-family="Calibri,Calibri_MSFontService,sans-serif" font-weight="700" font-size="14.6442" transform="matrix(1 0 0 0.998466 242.483 45)">.py</text><path d="M310.5 8.48702 353.5 8.48702 353.5 44.1566 341.224 56.4134 310.5 56.4134Z" fill="#FFFFFF" fill-rule="evenodd"/><path d="M341.224 56.4134 343.68 46.6079 353.5 44.1566Z" fill="#CDCDCD" fill-rule="evenodd"/><path d="M341.224 56.4134 343.68 46.6079 353.5 44.1566 341.224 56.4134 310.5 56.4134 310.5 8.48702 353.5 8.48702 353.5 44.1566" stroke="#172C51" stroke-width="1.33333" stroke-miterlimit="8" fill="none" fill-rule="evenodd"/><text font-family="Calibri,Calibri_MSFontService,sans-serif" font-weight="700" font-size="14.6442" transform="matrix(1 0 0 0.998466 320.502 22)">PLY</text><text font-family="Calibri,Calibri_MSFontService,sans-serif" font-weight="700" font-size="14.6442" transform="matrix(1 0 0 0.998466 317.755 39)">(</text><text font-family="Calibri,Calibri_MSFontService,sans-serif" font-weight="700" font-size="14.6442" transform="matrix(1 0 0 0.998466 322.255 39)">UV</text><text font-family="Calibri,Calibri_MSFontService,sans-serif" font-weight="700" font-size="14.6442" transform="matrix(1 0 0 0.998466 340.422 39)">)</text><path d="M372.5 16.4749C372.5 12.0633 376.082 8.48702 380.5 8.48702L434.5 8.48702C438.918 8.48702 442.5 12.0633 442.5 16.4749L442.5 48.4255C442.5 52.8371 438.918 56.4134 434.5 56.4134L380.5 56.4134C376.082 56.4134 372.5 52.8371 372.5 48.4255Z" stroke="#172C51" stroke-width="1.33333" stroke-miterlimit="8" fill="#DAE3F3" fill-rule="evenodd"/><text font-family="Calibri,Calibri_MSFontService,sans-serif" font-weight="700" font-size="14.6442" transform="matrix(1 0 0 0.998466 383.34 28)">Blender</text><text font-family="Calibri,Calibri_MSFontService,sans-serif" font-weight="700" font-size="14.6442" transform="matrix(1 0 0 0.998466 374.173 45)">(decimate)</text><path d="M462.5 8.48702 506.5 8.48702 506.5 43.8716 493.939 56.4134 462.5 56.4134Z" fill="#FFFFFF" fill-rule="evenodd"/><path d="M493.939 56.4134 496.451 46.3799 506.5 43.8716Z" fill="#CDCDCD" fill-rule="evenodd"/><path d="M493.939 56.4134 496.451 46.3799 506.5 43.8716 493.939 56.4134 462.5 56.4134 462.5 8.48702 506.5 8.48702 506.5 43.8716" stroke="#172C51" stroke-width="1.33333" stroke-miterlimit="8" fill="none" fill-rule="evenodd"/><text font-family="Calibri,Calibri_MSFontService,sans-serif" font-weight="700" font-size="14.6442" transform="matrix(1 0 0 0.998466 473.023 22)">PLY</text><text font-family="Calibri,Calibri_MSFontService,sans-serif" font-weight="700" font-size="14.6442" transform="matrix(1 0 0 0.998466 470.277 39)">(</text><text font-family="Calibri,Calibri_MSFontService,sans-serif" font-weight="700" font-size="14.6442" transform="matrix(1 0 0 0.998466 474.777 39)">UV</text><text font-family="Calibri,Calibri_MSFontService,sans-serif" font-weight="700" font-size="14.6442" transform="matrix(1 0 0 0.998466 492.943 39)">)</text><path d="M530.5 21.3009C530.5 14.224 536.246 8.48702 543.334 8.48702L594.666 8.48702C601.754 8.48702 607.5 14.224 607.5 21.3009L607.5 76.5489C607.5 83.6258 601.754 89.3628 594.666 89.3628L543.334 89.3628C536.246 89.3628 530.5 83.6258 530.5 76.5489Z" stroke="#172C51" stroke-width="1.33333" stroke-miterlimit="8" fill="#FFFFFF" fill-rule="evenodd"/><text font-family="Calibri,Calibri_MSFontService,sans-serif" font-weight="700" font-size="14.6442" transform="matrix(1 0 0 0.998466 547.738 45)">RgbPly</text><text font-family="Calibri,Calibri_MSFontService,sans-serif" font-weight="700" font-size="14.6442" transform="matrix(1 0 0 0.998466 559.151 62)">.py</text><rect x="566.5" y="145.277" width="13" height="63.9018" stroke="#172C51" stroke-width="1.33333" stroke-miterlimit="8" fill="#FFFFFF"/><rect x="543.5" y="201.191" width="58" height="7.98773" stroke="#172C51" stroke-width="1.33333" stroke-miterlimit="8" fill="#FFFFFF"/><rect x="517.5" y="109.332" width="109" height="72.888" stroke="#172C51" stroke-width="1.33333" stroke-miterlimit="8" fill="#FFFFFF"/><rect x="523.5" y="114.324" width="97" height="63.9018" stroke="#172C51" stroke-width="1.33333" stroke-miterlimit="8" fill="url(#fill0)"/></g></svg>